# xmcd
#
# Track frame offsets: 
#        150
#        26573
#        58411
#        82174
#        100832
#        131377
#        155637
#        187286
#
# Disc length: 2858 seconds
#
# Revision: 0
# Processed by: cddbd v1.5.2PL0 Copyright (c) Steve Scherf et al.
# Submitted via: ExactAudioCopy v0.99pb5
#
DISCID=710b2808
DTITLE=Stu Heydon - 3rd Degree
DYEAR=2009
DGENRE=Blues
TTITLE0=Middle Of The Night
TTITLE1=Closing Time
TTITLE2=3rd Degree
TTITLE3=Memory Of You
TTITLE4=Fooled Myself
TTITLE5=Family Matters
TTITLE6=My Way
TTITLE7=Love`s Gone
EXTD=
EXTT0=
EXTT1=
EXTT2=
EXTT3=
EXTT4=
EXTT5=
EXTT6=
EXTT7=
PLAYORDER=
